<svg width="95" height="30" viewBox="0 0 95 30" fill="none" xmlns="http://www.w3.org/2000/svg">
<mask id="mask0_271_3521" style="mask-type:luminance" maskUnits="userSpaceOnUse" x="41" y="18" width="49" height="12">
<path d="M41.8184 25.882C41.8184 25.8422 41.8582 25.7692 41.9312 25.756C43.6354 25.3448 45.459 24.874 46.9245 24.496C47.528 24.3369 48.0784 24.1976 48.5625 24.0716C61.3542 20.809 76.8118 19.2772 87.0174 18.9257L88.7813 18.8793C88.7481 18.9058 88.6951 18.939 88.6354 18.9721C87.7402 19.4828 87.2694 19.7878 87.2428 19.8077C84.8489 21.5716 83.463 24.5623 83.1248 28.7003C83.1049 28.9788 82.9855 29.1976 82.7866 29.3369C82.5412 29.5093 82.1964 29.5491 81.8118 29.4496C73.0518 27.1883 56.8118 25.9483 44.8821 25.9483C43.9603 25.9483 43.0585 25.9549 42.1964 25.9682C42.1831 25.9682 42.1633 25.9682 42.15 25.9682C41.9113 25.9682 41.8184 25.8952 41.8184 25.8621M87.0041 18.4085C76.772 18.7599 61.268 20.2984 48.4365 23.5676C47.9524 23.687 47.402 23.8329 46.7985 23.992C45.333 24.37 43.5094 24.8408 41.8118 25.252C41.5001 25.3249 41.2813 25.63 41.3211 25.9284C41.341 26.061 41.4471 26.4788 42.203 26.4721C54.2256 26.2666 72.2892 27.5 81.6858 29.9337C81.8648 29.9801 82.0373 30 82.2097 30C82.5346 30 82.833 29.9138 83.0784 29.7414C83.3967 29.5159 83.589 29.1578 83.6288 28.7334C83.9603 24.7414 85.28 21.87 87.5346 20.2056C87.5346 20.2056 88.0121 19.8939 88.894 19.3899C89.0399 19.3103 89.4709 19.0583 89.3914 18.6936C89.345 18.4814 89.1327 18.3687 88.9802 18.3621L87.0174 18.4151L87.0041 18.4085Z" fill="white"/>
</mask>
<g mask="url(#mask0_271_3521)">
<path d="M89.4701 18.3752H41.2871V30.0132H89.4701V18.3752Z" fill="url(#paint0_linear_271_3521)"/>
</g>
<mask id="mask1_271_3521" style="mask-type:luminance" maskUnits="userSpaceOnUse" x="0" y="17" width="48" height="13">
<path d="M1.67198 29.3435H1.60566C1.55924 29.3435 1.52609 29.3435 1.49293 29.3368L1.95712 28.8196C4.40407 26.0212 5.64412 23.3223 4.82847 18.0769C4.82184 18.0238 4.81521 17.9244 4.87489 17.8713C4.92794 17.8249 5.03404 17.8183 5.14678 17.8514C14.3046 20.7559 23.9664 22.5199 43.8006 22.3209L46.4266 22.2944C46.7648 22.2944 46.9107 22.3408 46.9638 22.3673C46.924 22.4337 46.8046 22.5265 46.6985 22.553C45.7038 22.7984 44.7091 23.0636 43.7476 23.3223C43.0115 23.5212 42.2887 23.7135 41.5924 23.8925C27.8325 27.4204 11.6786 29.3037 2.83908 29.3435C2.48763 29.3435 2.09638 29.3435 1.67861 29.3435M4.54996 17.4933C4.37091 17.6459 4.29134 17.8846 4.33113 18.1565C5.14015 23.3156 3.8802 25.9151 1.43325 28.6604L1.09505 29.0384C0.969058 29.1512 0.856325 29.3435 0.92927 29.5424C1.03537 29.8342 1.43988 29.8475 1.59903 29.8475H1.67198C2.04996 29.8475 2.40142 29.8541 2.71972 29.8541H2.83908C11.7118 29.8143 27.912 27.9244 41.7118 24.3899C42.4147 24.2108 43.1375 24.0185 43.8736 23.8196C44.8351 23.561 45.8232 23.2957 46.8112 23.0504C47.1163 22.9774 47.5075 22.6525 47.4677 22.3077C47.4279 21.9761 47.0765 21.8103 46.4134 21.8103L43.7874 21.8368C24.0195 22.0358 14.4041 20.2785 5.29267 17.3872C5.1932 17.3541 5.09373 17.3408 5.00089 17.3408C4.82847 17.3408 4.66932 17.3939 4.54333 17.5" fill="white"/>
</mask>
<g mask="url(#mask1_271_3521)">
<path d="M47.5074 17.3342H0.849609V29.8541H47.5074V17.3342Z" fill="url(#paint1_linear_271_3521)"/>
</g>
<path d="M71.235 18.8395C74.5042 18.4814 77.6607 18.2029 80.5917 18.004L80.6647 17.3541C80.6912 17.1088 80.5055 16.9828 80.2535 16.9828H80.1806C79.1196 17.0822 77.3689 17.2281 75.5387 17.2281C73.1315 17.2281 72.7204 15.5239 72.8795 14.0982V14.0252L81.0625 14.0318C81.414 14.0318 81.5864 13.813 81.6328 13.4151L81.7854 12.0358C82.1965 8.36872 80.3729 5.78251 76.5135 5.77588C72.6739 5.77588 70.227 8.18304 69.796 12.0226L69.5904 13.8462C69.3119 16.3395 70.0811 17.9045 71.235 18.8329M73.1779 11.6114C73.3968 9.66845 74.6434 8.58755 76.2018 8.58755C77.7535 8.58755 78.7084 9.69498 78.4962 11.6181L78.483 11.7175H73.1647L73.1779 11.6181V11.6114Z" fill="#95C11F"/>
<path d="M6.32741 7.98406L7.6404 8.07026C8.02502 8.12994 8.28364 8.64055 8.24385 9.02517L7.32873 17.2414C8.37648 17.5464 9.44412 17.8382 10.5449 18.1101L11.5661 8.97875C11.6059 8.61403 11.8712 8.3753 12.2359 8.3753L13.403 8.45488C14.1811 8.50793 14.6033 8.23605 14.6696 7.63923L14.7226 7.19493C14.8553 6.02119 14.895 5.99467 13.5887 5.93498L12.6404 5.86867C12.2094 5.86867 11.9507 5.52384 11.9972 5.09281L12.0436 4.6883C12.1762 3.4814 12.4813 3.20952 13.6881 3.20952H14.8155C14.9879 3.20952 15.2067 3.09016 15.2399 2.79175L15.399 1.33949C15.4256 1.12066 15.1868 0.994665 14.9945 0.941615C14.5303 0.842145 14.1126 0.742676 13.5091 0.742676C10.903 0.742676 9.08603 1.50528 8.72794 4.67504L8.66826 5.2387C8.62847 5.60342 8.48921 5.57689 8.01176 5.54374C8.01176 5.54374 7.18284 5.49069 6.91759 5.47079C6.25004 5.42658 5.87206 5.80236 5.78364 6.59811C5.74385 6.96284 5.52502 7.91111 6.32741 7.97079" fill="#95C11F"/>
<path d="M33.2498 14.0185H25.0734L25.0668 14.0848C24.9076 15.5105 25.3187 17.2015 27.7259 17.2015C29.5561 17.2015 31.3002 17.0556 32.3678 16.9628H32.4408C32.6928 16.9628 32.8784 17.0822 32.8519 17.3275L32.6729 18.9456C32.6264 19.3368 32.5336 19.5092 32.076 19.5822C30.4116 19.8739 29.4235 19.9999 27.1622 19.9933C24.6556 19.9933 21.2405 18.667 21.7843 13.8328L21.9898 12.0159C22.4209 8.18959 24.8678 5.78906 28.7073 5.78906C32.5668 5.78906 34.3904 8.36864 33.9792 12.0225L33.8267 13.3952C33.7803 13.7864 33.6079 14.0119 33.2564 14.0052M30.6901 11.5981C30.9023 9.68163 29.9474 8.58084 28.3957 8.58084C26.8439 8.58084 25.5906 9.65511 25.3718 11.5981L25.3585 11.6975H30.6768L30.6901 11.6047V11.5981Z" fill="#95C11F"/>
<path d="M57.5668 1.13405L54.3838 4.07171C54.1583 4.29055 54.0456 4.39002 53.7472 4.39002H51.592C51.4395 4.39002 51.3732 4.31044 51.3864 4.2176C51.3931 4.14466 51.4328 4.04519 51.5124 3.97224L54.1053 1.13405C54.3639 0.862165 54.47 0.762695 54.7949 0.762695H57.4275C57.5999 0.762695 57.6928 0.83564 57.6862 0.935109C57.6862 0.981528 57.6464 1.0611 57.5668 1.13405Z" fill="#95C11F"/>
<path d="M69.0789 6.51853L64.6691 17.7122C63.9661 19.5358 62.5537 20.0265 61.2738 20.0265C59.994 20.0265 58.7208 19.5291 58.4224 17.7122L56.5126 6.5119C56.4927 6.46548 56.4993 6.39254 56.5126 6.33949C56.5391 6.12066 56.7314 5.94824 56.9569 5.94824H59.4635C59.6889 5.94824 59.868 6.12066 59.9078 6.44559L61.1611 16.7573C61.2075 17.2215 61.3667 17.374 61.5722 17.374C61.7712 17.374 61.9635 17.2281 62.116 16.7573L65.677 6.44559C65.7897 6.12729 66.0351 5.95487 66.2606 5.95487H68.7672C68.9927 5.95487 69.1518 6.12729 69.1253 6.35275C69.1253 6.39917 69.112 6.47875 69.0789 6.52517" fill="#95C11F"/>
<path d="M46.7649 19.9934H43.993C43.7145 19.9934 43.6018 19.9205 43.3697 19.5027L42.6867 18.4019C41.8511 16.8767 40.0209 16.817 39.0063 18.2295L35.3259 22.9311C35.001 23.3488 34.8352 23.4085 34.5567 23.4085H31.9705C31.7715 23.4085 31.6853 23.2825 31.6986 23.1366C31.7052 23.0637 31.7384 22.9908 31.7981 22.9178L38.9798 13.6937C39.4174 13.2427 39.2848 12.5266 39.0726 12.1552L35.6575 6.46556C35.6376 6.41914 35.6177 6.36609 35.6243 6.31967C35.6442 6.14725 35.8166 5.94168 36.0421 5.94168H39.0726C39.3511 5.94168 39.4572 6.06768 39.6694 6.4324L40.2463 7.48014C40.989 8.83293 42.7795 8.98545 43.7079 7.75203L46.6389 3.96556C46.9638 3.52126 47.2158 3.39526 47.4943 3.39526H50.0805C50.2795 3.39526 50.3657 3.52126 50.3524 3.66715C50.3458 3.74009 50.3126 3.81304 50.253 3.88598L43.741 12.1817C43.4691 12.5266 43.5752 13.0239 43.7874 13.4085L47.3485 19.5093C47.3684 19.5557 47.3882 19.6088 47.3816 19.6817C47.3617 19.8542 46.9638 20 46.7649 20" fill="#95C11F"/>
<path d="M46.7653 19.9934H43.9935C43.7149 19.9934 43.6022 19.9204 43.3701 19.5027L42.6871 18.4019C41.8515 16.8767 39.2985 12.5265 39.0863 12.1552L35.6712 6.46552C35.6513 6.4191 35.6314 6.36605 35.638 6.31963C35.6579 6.14722 35.8303 5.94165 36.0558 5.94165H39.0863C39.3648 5.94165 39.4709 6.06764 39.6831 6.43237L40.26 7.48011C41.0027 8.8329 43.5757 13.0305 43.7945 13.4085L47.3555 19.5093C47.3754 19.5557 47.3953 19.6088 47.3887 19.6817C47.3688 19.8541 46.9709 20 46.772 20" fill="#95C11F"/>
<path d="M51.5535 19.9934H50.698C49.9686 19.9934 49.4381 19.3966 49.5177 18.6737L50.8041 7.08223C50.8771 6.45226 51.4474 5.94165 52.0774 5.94165H52.9328C53.649 5.94165 54.1728 6.5252 54.0933 7.24139L52.8002 18.8859C52.7272 19.5226 52.1901 20 51.5535 20" fill="#95C11F"/>
<path d="M86.9702 17.6724L87.4277 17.6591L89.132 2.40712C89.2116 1.69757 88.6877 1.11401 87.9715 1.11401H87.1161C86.4861 1.11401 85.9092 1.62462 85.8362 2.2546L84.1055 17.7917C85.1002 17.7453 86.0551 17.6989 86.9702 17.6724Z" fill="#95C11F"/>
<path d="M18.6411 19.7215L20.6106 2.34084C20.6902 1.63792 20.173 1.06763 19.4701 1.06763H18.5947C17.9648 1.06763 17.3878 1.57824 17.3215 2.20821L15.3984 19.1843C16.4396 19.3766 17.5205 19.5623 18.6478 19.7281" fill="#95C11F"/>
<path d="M92.5605 1.60474H93.0712C93.1706 1.60474 93.2635 1.60474 93.3563 1.62463C93.4491 1.64452 93.5353 1.65779 93.6149 1.69757C93.6879 1.73736 93.7542 1.79041 93.8006 1.86336C93.847 1.9363 93.8735 2.03577 93.8735 2.16177C93.8735 2.30765 93.8271 2.42702 93.7409 2.51986C93.6547 2.61269 93.5287 2.66574 93.3696 2.69227L93.9399 3.62065H93.6481L93.1043 2.71879H92.7993V3.62065H92.5605V1.61137V1.60474ZM92.7993 2.49333H93.0115C93.0778 2.49333 93.1441 2.49333 93.217 2.49333C93.29 2.49333 93.3563 2.48007 93.416 2.46017C93.4757 2.44028 93.5221 2.40712 93.5619 2.3607C93.6017 2.31429 93.6215 2.2546 93.6215 2.1684C93.6215 2.09545 93.6083 2.03577 93.5818 1.99598C93.5552 1.94956 93.5155 1.91641 93.469 1.89651C93.4226 1.86999 93.3696 1.85673 93.3165 1.85009C93.2568 1.84346 93.2038 1.83683 93.1441 1.83683H92.8059V2.49996L92.7993 2.49333Z" fill="#95C11F"/>
<path d="M93.1706 4.29048C92.2224 4.29048 91.4531 3.52125 91.4531 2.57298C91.4531 1.6247 92.2224 0.855469 93.1706 0.855469C94.1189 0.855469 94.8881 1.6247 94.8881 2.57298C94.8881 3.52125 94.1189 4.29048 93.1706 4.29048ZM93.1706 1.05441C92.3351 1.05441 91.6521 1.73743 91.6521 2.57298C91.6521 3.40852 92.3351 4.09154 93.1706 4.09154C94.0062 4.09154 94.6892 3.40852 94.6892 2.57298C94.6892 1.73743 94.0062 1.05441 93.1706 1.05441Z" fill="#95C11F"/>
<path d="M26.6723 3.3554C26.2413 3.58749 25.7505 3.70023 25.22 3.70023C24.9482 3.70023 24.6962 3.65381 24.4707 3.5676C24.2452 3.48139 24.0463 3.3554 23.8872 3.19625C23.7214 3.0371 23.5954 2.84479 23.5025 2.61932C23.4097 2.39386 23.3633 2.14187 23.3633 1.86999C23.3633 1.5981 23.4097 1.33285 23.5025 1.10076C23.5954 0.868661 23.7214 0.676353 23.8872 0.510571C24.0529 0.351419 24.2452 0.225425 24.4707 0.132586C24.6962 0.0530109 24.9482 0.0065918 25.22 0.0065918C25.4919 0.0065918 25.7373 0.0397483 25.976 0.106061C26.2081 0.172374 26.4203 0.285106 26.606 0.450889L26.1418 0.91508C26.0291 0.808979 25.8898 0.722772 25.7307 0.66309C25.5715 0.603409 25.3991 0.576884 25.22 0.576884C25.041 0.576884 24.8752 0.61004 24.7293 0.676353C24.5834 0.742666 24.4574 0.828873 24.3513 0.941605C24.2452 1.05434 24.1657 1.18696 24.106 1.33948C24.0463 1.492 24.0198 1.65779 24.0198 1.8302C24.0198 2.02251 24.0463 2.19492 24.106 2.35407C24.1657 2.51322 24.2452 2.65248 24.3513 2.76521C24.4574 2.87794 24.5834 2.97078 24.7293 3.0371C24.8752 3.10341 25.041 3.13657 25.22 3.13657C25.3792 3.13657 25.5317 3.1233 25.671 3.09015C25.8102 3.05699 25.9362 3.0172 26.049 2.95089V2.12198H25.3328V1.55832H26.6789V3.3554H26.6723Z" fill="#95C11F"/>
<path d="M28.6074 0.0993652H29.8276C29.9934 0.0993652 30.1591 0.112628 30.3183 0.145784C30.4774 0.178941 30.6167 0.231991 30.7361 0.304936C30.8554 0.384511 30.9549 0.483981 31.0278 0.609975C31.1008 0.73597 31.1406 0.901753 31.1406 1.10069C31.1406 1.35268 31.0676 1.57151 30.9284 1.74393C30.7891 1.91634 30.5902 2.02244 30.3249 2.0556L31.2599 3.60732H30.504L29.6883 2.11528H29.2308V3.60732H28.6074V0.0993652ZM29.7215 1.59141C29.8143 1.59141 29.9005 1.59141 29.9867 1.57815C30.0796 1.57151 30.1591 1.55162 30.2321 1.51846C30.305 1.48531 30.3647 1.43889 30.4111 1.37257C30.4576 1.30626 30.4841 1.22005 30.4841 1.10069C30.4841 0.994591 30.4642 0.915015 30.4178 0.855333C30.3713 0.795652 30.3183 0.742601 30.2454 0.716076C30.179 0.68292 30.0995 0.663026 30.0133 0.656394C29.9271 0.649763 29.8475 0.643132 29.7679 0.643132H29.2241V1.59804H29.7082L29.7215 1.59141Z" fill="#95C11F"/>
<path d="M35.7444 2.32089C35.7444 2.53309 35.7113 2.7254 35.6317 2.89781C35.5588 3.07023 35.4593 3.20948 35.3333 3.32885C35.2073 3.44821 35.0614 3.54105 34.889 3.60736C34.7166 3.67368 34.5309 3.70683 34.3253 3.70683C34.1198 3.70683 33.9341 3.67368 33.7617 3.60736C33.5893 3.54105 33.4368 3.44821 33.3108 3.32885C33.1848 3.20948 33.0853 3.0636 33.0124 2.89781C32.9394 2.7254 32.9062 2.53309 32.9062 2.32089V0.0927734H33.5296V2.301C33.5296 2.3872 33.5429 2.48004 33.5694 2.57288C33.5959 2.66572 33.6423 2.75192 33.702 2.8315C33.7617 2.91108 33.8413 2.97739 33.9474 3.02381C34.0468 3.07686 34.1728 3.10338 34.3253 3.10338C34.4779 3.10338 34.5972 3.07686 34.7033 3.02381C34.8094 2.97076 34.8824 2.90444 34.9487 2.8315C35.0084 2.75192 35.0548 2.66572 35.0813 2.57288C35.1078 2.48004 35.1211 2.3872 35.1211 2.301V0.0927734H35.7444V2.32089Z" fill="#95C11F"/>
<path d="M37.6992 0.0927734H38.8796C39.0454 0.0927734 39.2112 0.106036 39.3703 0.139193C39.5295 0.172349 39.6687 0.225399 39.7881 0.304975C39.9074 0.384551 40.0003 0.48402 40.0732 0.616646C40.1462 0.749272 40.1793 0.908423 40.1793 1.10736C40.1793 1.33283 40.1395 1.50524 40.0666 1.6445C39.9937 1.77712 39.8876 1.88322 39.7616 1.9628C39.6356 2.03574 39.483 2.08879 39.3106 2.11532C39.1382 2.14185 38.9592 2.15511 38.7801 2.15511H38.3358V3.60736H37.7125V0.0927734H37.6992ZM38.7005 1.61797C38.7934 1.61797 38.8796 1.61797 38.9791 1.61134C39.0719 1.61134 39.1647 1.58482 39.2443 1.55166C39.3239 1.5185 39.3902 1.47208 39.4433 1.40577C39.4963 1.33946 39.5228 1.24662 39.5228 1.12726C39.5228 1.01452 39.4963 0.928317 39.4565 0.868635C39.4101 0.802323 39.3504 0.755903 39.2775 0.722747C39.2045 0.68959 39.125 0.663065 39.0321 0.656434C38.9459 0.649803 38.8597 0.643171 38.7735 0.643171H38.3292V1.63124H38.7072L38.7005 1.61797Z" fill="#95C11F"/>
<path d="M41.7383 1.87003C41.7383 1.59151 41.7847 1.33289 41.8775 1.1008C41.9704 0.8687 42.0964 0.676393 42.2622 0.51061C42.4279 0.351459 42.6202 0.225464 42.8457 0.132626C43.0712 0.0464191 43.3232 0 43.595 0C43.8669 0 44.1189 0.0397878 44.351 0.119363C44.5831 0.20557 44.7754 0.324934 44.9412 0.490716C45.107 0.649867 45.233 0.848806 45.3258 1.07427C45.4187 1.29973 45.4651 1.55836 45.4651 1.83687C45.4651 2.11538 45.4187 2.36074 45.3258 2.58621C45.233 2.81167 45.107 3.00398 44.9412 3.16976C44.7754 3.32891 44.5765 3.45491 44.351 3.54775C44.1255 3.64058 43.8736 3.687 43.595 3.687C43.3232 3.687 43.0712 3.64058 42.8457 3.55438C42.6202 3.46817 42.4213 3.34218 42.2622 3.18302C42.0964 3.02387 41.9704 2.83157 41.8775 2.6061C41.7847 2.38064 41.7383 2.12865 41.7383 1.85676M42.3948 1.81698C42.3948 2.00928 42.4213 2.1817 42.481 2.34085C42.5407 2.5 42.6202 2.63926 42.7263 2.75199C42.8324 2.86472 42.9584 2.95756 43.1043 3.02387C43.2502 3.09019 43.416 3.12334 43.595 3.12334C43.7741 3.12334 43.9399 3.09019 44.0924 3.02387C44.2383 2.95756 44.3709 2.86472 44.477 2.75199C44.5831 2.63263 44.6627 2.5 44.7224 2.34085C44.782 2.1817 44.8086 2.00928 44.8086 1.81698C44.8086 1.64456 44.782 1.47878 44.7224 1.32626C44.6627 1.17374 44.5831 1.04111 44.477 0.928382C44.3709 0.81565 44.2449 0.722812 44.0924 0.66313C43.9399 0.596817 43.7741 0.563661 43.595 0.563661C43.416 0.563661 43.2502 0.596817 43.1043 0.66313C42.9584 0.729443 42.8324 0.81565 42.7263 0.928382C42.6202 1.04111 42.5407 1.17374 42.481 1.32626C42.4213 1.47878 42.3948 1.64456 42.3948 1.81698Z" fill="#95C11F"/>
<defs>
<linearGradient id="paint0_linear_271_3521" x1="41.3932" y1="24.1113" x2="89.4701" y2="24.1113" gradientUnits="userSpaceOnUse">
<stop stop-color="#94C123"/>
<stop offset="0.51" stop-color="#349461"/>
<stop offset="1" stop-color="#00767A"/>
</linearGradient>
<linearGradient id="paint1_linear_271_3521" x1="1.79258" y1="23.9857" x2="48.3576" y2="23.9857" gradientUnits="userSpaceOnUse">
<stop stop-color="#94C123"/>
<stop offset="0.51" stop-color="#349461"/>
<stop offset="1" stop-color="#00767A"/>
</linearGradient>
</defs>
</svg>
