<svg version="1.2" xmlns="http://www.w3.org/2000/svg" viewBox="0 0 32 32" width="32" height="32"><style>.a{fill:#fff}</style><path fill-rule="evenodd" class="a" d="m16 0.5c8.6 0 15.5 6.9 15.5 15.5 0 8.6-6.9 15.5-15.5 15.5-8.6 0-15.5-6.9-15.5-15.5 0-8.6 6.9-15.5 15.5-15.5zm13.5 15.5c0-7.4-6.1-13.5-13.5-13.5-7.5 0-13.5 6.1-13.5 13.5 0 7.5 6.1 13.5 13.5 13.5 7.4 0 13.5-6.1 13.5-13.5zm-5.8-0.3c0.3 0.4 0.3 0.8 0 1.1l-7.2 7.2c-0.3 0.3-0.8 0.3-1.1 0l-7.2-7.2c-0.3-0.3-0.3-0.7 0.1-1.1l0.4-0.4c0.3-0.3 0.7-0.3 1.1 0l5.1 5.4v-12q0-0.1 0.1-0.2 0.1-0.2 0.2-0.3 0.1-0.1 0.2-0.1 0.1-0.1 0.3-0.1h0.6c0.4 0 0.8 0.4 0.8 0.7v12l5.1-5.4c0.3-0.3 0.7-0.3 1 0 0 0 0.5 0.5 0.5 0.5z"/></svg>