<svg xmlns="http://www.w3.org/2000/svg" width="20" height="21" fill="none"><path fill="#003D3D" d="M4.375 18c0 .352.273.625.625.625h10a.642.642 0 0 0 .625-.625V6.75H12.5c-.703 0-1.25-.547-1.25-1.25V2.375H5A.642.642 0 0 0 4.375 3v15ZM5 .5h6.445c.664 0 1.29.273 1.758.742l3.555 3.555c.469.469.742 1.094.742 1.758V18c0 1.406-1.133 2.5-2.5 2.5H5A2.468 2.468 0 0 1 2.5 18V3C2.5 1.633 3.594.5 5 .5Zm5.938 9.063v4.023l1.21-1.211c.352-.39.938-.39 1.329 0a.92.92 0 0 1 0 1.29l-2.813 2.812c-.39.39-.976.39-1.328 0l-2.813-2.813a.856.856 0 0 1 0-1.289c.352-.39.938-.39 1.329 0l1.21 1.21V9.563c0-.507.391-.937.938-.937a.95.95 0 0 1 .938.938Z"/></svg>