<svg xmlns="http://www.w3.org/2000/svg" width="95" height="30" fill="none"><mask id="a" width="49" height="12" x="41" y="18" maskUnits="userSpaceOnUse" style="mask-type:luminance"><path fill="#fff" d="M41.818 25.882c0-.04.04-.113.113-.126 1.704-.411 3.528-.882 4.994-1.26.603-.16 1.153-.298 1.638-.424 12.791-3.263 28.249-4.795 38.454-5.146l1.764-.047c-.033.027-.086.06-.146.093-.895.51-1.366.816-1.392.836-2.394 1.764-3.78 4.754-4.118 8.892-.02.279-.14.498-.338.637-.246.172-.59.212-.975.113-8.76-2.262-25-3.502-36.93-3.502-.922 0-1.823.007-2.686.02h-.046c-.239 0-.332-.073-.332-.106m45.186-7.453c-10.232.35-25.736 1.89-38.568 5.159-.484.119-1.034.265-1.638.424-1.465.378-3.289.849-4.986 1.26-.312.073-.53.378-.49.676.019.133.125.55.881.544 12.023-.205 30.086 1.028 39.483 3.462.179.046.351.066.524.066.325 0 .623-.086.868-.259.319-.225.511-.583.55-1.008.332-3.992 1.652-6.863 3.907-8.527 0 0 .477-.312 1.359-.816.146-.08.577-.332.497-.696-.046-.213-.258-.325-.41-.332l-1.964.053-.013-.006Z"/></mask><g mask="url(#a)"><path fill="url(#b)" d="M89.47 18.375H41.287v11.638H89.47V18.375Z"/></g><mask id="c" width="48" height="13" x="0" y="17" maskUnits="userSpaceOnUse" style="mask-type:luminance"><path fill="#fff" d="M1.672 29.343h-.066c-.047 0-.08 0-.113-.006l.464-.517c2.447-2.799 3.687-5.498 2.871-10.743-.006-.053-.013-.153.047-.206.053-.046.159-.053.272-.02 9.158 2.905 18.82 4.669 38.654 4.47l2.626-.027c.338 0 .484.047.537.073a.505.505 0 0 1-.265.186c-.995.245-1.99.51-2.951.77-.736.198-1.46.39-2.156.57-13.76 3.527-29.913 5.41-38.753 5.45H1.68m2.871-11.85c-.18.153-.259.392-.219.664.81 5.159-.45 7.758-2.898 10.503l-.338.378c-.126.113-.239.305-.166.504.106.292.51.305.67.305h.073c.378 0 .73.007 1.048.007h.12c8.872-.04 25.072-1.93 38.872-5.464.703-.18 1.425-.372 2.162-.57.961-.259 1.95-.524 2.937-.77.305-.073.697-.398.657-.742-.04-.332-.392-.498-1.055-.498l-2.626.027c-19.767.199-29.383-1.558-38.494-4.45A.924.924 0 0 0 5 17.341a.7.7 0 0 0-.458.159"/></mask><g mask="url(#c)"><path fill="url(#d)" d="M47.507 17.334H.85v12.52h46.657v-12.52Z"/></g><path fill="#95C11F" d="M71.235 18.84c3.27-.359 6.426-.637 9.357-.836l.073-.65c.026-.245-.16-.371-.412-.371h-.072c-1.061.1-2.812.245-4.642.245-2.407 0-2.819-1.704-2.66-3.13v-.073l8.183.007c.352 0 .524-.219.57-.617l.153-1.38c.412-3.666-1.412-6.252-5.272-6.26-3.84 0-6.286 2.408-6.717 6.248l-.206 1.823c-.278 2.494.491 4.058 1.645 4.987m1.943-7.222c.219-1.943 1.465-3.023 3.024-3.023 1.552 0 2.506 1.107 2.294 3.03l-.013.1h-5.318l.013-.1v-.007ZM6.327 7.984l1.313.086c.385.06.644.57.604.955l-.915 8.216c1.047.305 2.115.597 3.216.87l1.021-9.132a.646.646 0 0 1 .67-.604l1.167.08c.778.053 1.2-.219 1.267-.816l.053-.444c.132-1.174.172-1.2-1.134-1.26l-.949-.066c-.43 0-.69-.345-.643-.776l.047-.405c.132-1.207.437-1.478 1.644-1.478h1.127c.173 0 .392-.12.425-.418l.159-1.453c.027-.218-.212-.344-.404-.397-.465-.1-.882-.2-1.486-.2-2.606 0-4.423.763-4.781 3.933l-.06.564c-.04.364-.179.338-.656.305 0 0-.83-.053-1.094-.073-.668-.044-1.046.331-1.134 1.127-.04.365-.259 1.313.543 1.373M33.25 14.018h-8.177l-.006.067c-.16 1.425.252 3.116 2.659 3.116 1.83 0 3.574-.145 4.642-.238h.073c.252 0 .437.12.41.364l-.178 1.619c-.047.39-.14.563-.597.636-1.664.292-2.652.418-4.914.411-2.506 0-5.921-1.326-5.378-6.16l.206-1.817c.43-3.826 2.878-6.227 6.717-6.227 3.86 0 5.683 2.58 5.272 6.234l-.152 1.372c-.047.391-.22.617-.57.61m-2.567-2.407c.212-1.916-.743-3.017-2.294-3.017-1.552 0-2.805 1.074-3.024 3.017l-.014.1h5.319l.013-.093v-.007ZM57.567 1.134l-3.183 2.938c-.226.219-.338.318-.637.318h-2.155c-.152 0-.219-.08-.206-.172a.4.4 0 0 1 .126-.246l2.593-2.838c.259-.272.365-.371.69-.371h2.633c.172 0 .265.073.258.172 0 .047-.04.126-.12.199ZM69.079 6.519l-4.41 11.193c-.703 1.824-2.115 2.314-3.395 2.314-1.28 0-2.553-.497-2.852-2.314l-1.91-11.2a.304.304 0 0 1 0-.173.45.45 0 0 1 .445-.39h2.507c.225 0 .404.172.444.497l1.253 10.311c.047.464.206.617.411.617.2 0 .392-.146.544-.617l3.561-10.311c.113-.319.358-.491.584-.491h2.506c.226 0 .385.172.358.398a.338.338 0 0 1-.046.172"/><path fill="#95C11F" d="M46.765 19.993h-2.772c-.279 0-.391-.072-.623-.49l-.683-1.101c-.836-1.525-2.666-1.585-3.68-.172l-3.681 4.701c-.325.418-.49.477-.77.477h-2.585c-.2 0-.286-.126-.272-.271a.406.406 0 0 1 .1-.22l7.18-9.223c.438-.451.306-1.167.094-1.539l-3.416-5.69a.293.293 0 0 1-.033-.145c.02-.173.193-.378.418-.378h3.03c.28 0 .385.126.597.49l.577 1.048c.743 1.353 2.533 1.505 3.462.272l2.93-3.786c.326-.445.578-.57.856-.57h2.587c.198 0 .285.125.271.271a.406.406 0 0 1-.099.219l-6.512 8.296c-.272.345-.166.842.046 1.226l3.562 6.101c.02.047.04.1.033.173-.02.172-.418.318-.617.318"/><path fill="#95C11F" d="M46.765 19.993h-2.772c-.278 0-.39-.073-.623-.49l-.683-1.101c-.835-1.525-3.389-5.876-3.6-6.247l-3.416-5.69a.293.293 0 0 1-.033-.145c.02-.173.192-.378.418-.378h3.03c.279 0 .385.126.597.49l.577 1.048c.743 1.353 3.316 5.55 3.535 5.928l3.56 6.101c.02.047.04.1.034.173-.02.172-.418.318-.617.318M51.553 19.993h-.855c-.73 0-1.26-.596-1.18-1.32l1.286-11.59c.073-.63.643-1.141 1.273-1.141h.856c.716 0 1.24.583 1.16 1.3L52.8 18.885A1.255 1.255 0 0 1 51.554 20M86.97 17.672l.458-.013 1.704-15.252a1.144 1.144 0 0 0-1.16-1.293h-.856c-.63 0-1.207.51-1.28 1.14l-1.73 15.538c.994-.047 1.95-.093 2.864-.12ZM18.641 19.721l1.97-17.38a1.123 1.123 0 0 0-1.14-1.273h-.876c-.63 0-1.207.51-1.273 1.14l-1.924 16.976a89.65 89.65 0 0 0 3.25.544M92.56 1.605h.511c.1 0 .192 0 .285.02.093.02.18.033.259.073.073.04.14.092.186.165a.551.551 0 0 1 .073.299.508.508 0 0 1-.133.358c-.086.093-.212.146-.371.172l.57.929h-.292l-.544-.902H92.8v.902h-.239V1.605Zm.24.888h.417c.073 0 .14-.013.199-.033a.32.32 0 0 0 .146-.1c.04-.046.06-.105.06-.192a.316.316 0 0 0-.04-.172.234.234 0 0 0-.113-.1.408.408 0 0 0-.152-.046c-.06-.007-.113-.013-.173-.013h-.338V2.5l-.007-.007Z"/><path fill="#95C11F" d="M93.17 4.29a1.718 1.718 0 1 1 .001-3.435 1.718 1.718 0 0 1 0 3.435Zm0-3.236c-.835 0-1.518.683-1.518 1.519 0 .836.683 1.519 1.519 1.519.835 0 1.518-.683 1.518-1.519 0-.836-.683-1.519-1.518-1.519ZM26.672 3.355a3.03 3.03 0 0 1-1.452.345c-.272 0-.524-.046-.75-.132a1.663 1.663 0 0 1-.968-.948 1.959 1.959 0 0 1-.139-.75c0-.272.047-.537.14-.77.092-.231.218-.424.384-.59.166-.159.358-.285.584-.377.225-.08.477-.126.749-.126s.517.033.756.1c.232.065.444.178.63.344l-.464.464a1.226 1.226 0 0 0-.411-.252 1.45 1.45 0 0 0-.511-.086 1.18 1.18 0 0 0-.869.365 1.217 1.217 0 0 0-.245.397 1.34 1.34 0 0 0-.086.491c0 .193.026.365.086.524.06.16.14.298.245.411.106.113.232.206.378.272.146.066.312.1.491.1.16 0 .312-.014.451-.047.14-.033.265-.073.378-.14v-.828h-.716v-.564h1.346v1.797h-.007ZM28.607.1h1.22c.166 0 .332.013.491.046.16.033.299.086.418.159.12.08.219.179.292.305a.976.976 0 0 1 .113.49c0 .253-.073.472-.213.644-.139.172-.338.278-.603.312l.935 1.551h-.756l-.816-1.492h-.457v1.492h-.624V.1Zm1.114 1.491c.093 0 .18 0 .266-.013a.702.702 0 0 0 .245-.06.427.427 0 0 0 .18-.145.457.457 0 0 0 .072-.272c0-.106-.02-.186-.066-.246a.394.394 0 0 0-.173-.139.63.63 0 0 0-.232-.06c-.086-.006-.166-.013-.245-.013h-.544v.955h.484l.014-.007ZM35.744 2.32a1.358 1.358 0 0 1-.41 1.009 1.33 1.33 0 0 1-.445.278c-.172.067-.358.1-.564.1-.205 0-.39-.033-.563-.1a1.36 1.36 0 0 1-.451-.278 1.32 1.32 0 0 1-.299-.431 1.465 1.465 0 0 1-.106-.577V.093h.624V2.3a1 1 0 0 0 .04.272.798.798 0 0 0 .132.259c.06.08.14.145.245.192.1.053.226.08.378.08a.817.817 0 0 0 .378-.08.812.812 0 0 0 .246-.192.798.798 0 0 0 .132-.26 1 1 0 0 0 .04-.271V.093h.623V2.32ZM37.7.093h1.18c.165 0 .331.013.49.046.16.033.299.086.418.166.12.08.212.179.285.312a.995.995 0 0 1 .106.49c0 .226-.04.398-.112.538a.877.877 0 0 1-.305.318 1.293 1.293 0 0 1-.451.152c-.173.027-.352.04-.53.04h-.445v1.452h-.623V.093h-.014Zm1 1.525c.093 0 .18 0 .28-.007a.705.705 0 0 0 .264-.06.487.487 0 0 0 .2-.145.435.435 0 0 0 .079-.279.463.463 0 0 0-.067-.258.427.427 0 0 0-.178-.146.704.704 0 0 0-.246-.067c-.086-.006-.172-.013-.258-.013h-.445v.988h.378l-.007-.013ZM41.738 1.87c0-.278.047-.537.14-.77.092-.231.218-.424.384-.59.166-.159.358-.285.584-.377.225-.087.477-.133.749-.133s.524.04.756.12c.232.086.424.205.59.37.166.16.292.359.385.584.093.226.14.484.14.763 0 .278-.047.524-.14.75a1.753 1.753 0 0 1-.385.583c-.166.159-.364.285-.59.378-.225.093-.477.139-.756.139-.272 0-.524-.046-.75-.133a1.663 1.663 0 0 1-.968-.948 1.959 1.959 0 0 1-.139-.75m.657-.039c0 .192.026.365.086.524.06.159.14.298.245.411.106.113.232.206.378.272.146.066.312.1.491.1.18 0 .345-.034.497-.1.146-.066.279-.16.385-.272a1.28 1.28 0 0 0 .245-.411c.06-.16.087-.332.087-.524 0-.172-.027-.338-.087-.49a1.217 1.217 0 0 0-.245-.399 1.052 1.052 0 0 0-.385-.265 1.234 1.234 0 0 0-.497-.1 1.18 1.18 0 0 0-.869.365 1.217 1.217 0 0 0-.245.398 1.34 1.34 0 0 0-.086.491Z"/><defs><linearGradient id="b" x1="41.393" x2="89.47" y1="24.111" y2="24.111" gradientUnits="userSpaceOnUse"><stop stop-color="#94C123"/><stop offset=".51" stop-color="#349461"/><stop offset="1" stop-color="#00767A"/></linearGradient><linearGradient id="d" x1="1.793" x2="48.358" y1="23.986" y2="23.986" gradientUnits="userSpaceOnUse"><stop stop-color="#94C123"/><stop offset=".51" stop-color="#349461"/><stop offset="1" stop-color="#00767A"/></linearGradient></defs></svg>