<svg xmlns="http://www.w3.org/2000/svg" width="24" height="24" fill="none"><circle cx="12" cy="12" r="12" fill="#fff"/><path fill="#003D3D" d="M12 9.805a2.71 2.71 0 0 1 2.695 2.695c0 1.5-1.218 2.695-2.695 2.695A2.68 2.68 0 0 1 9.305 12.5 2.696 2.696 0 0 1 12 9.805Zm0 4.453c.96 0 1.734-.774 1.734-1.758A1.73 1.73 0 0 0 12 10.766c-.984 0-1.758.773-1.758 1.734 0 .984.797 1.758 1.758 1.758Zm3.422-4.547a.63.63 0 0 1-.633.633.63.63 0 0 1-.633-.633.63.63 0 0 1 .633-.633.63.63 0 0 1 .633.633Zm1.781.633c.047.867.047 3.469 0 4.336-.047.843-.234 1.57-.844 2.203-.609.61-1.359.797-2.203.844-.867.046-3.469.046-4.336 0-.843-.047-1.57-.235-2.203-.844-.61-.633-.797-1.36-.844-2.203-.046-.867-.046-3.47 0-4.336.047-.844.235-1.594.844-2.203.633-.61 1.36-.797 2.203-.844.867-.047 3.47-.047 4.336 0 .844.047 1.594.234 2.203.844.61.609.797 1.359.844 2.203Zm-1.125 5.25c.281-.68.211-2.32.211-3.094 0-.75.07-2.39-.21-3.094-.188-.445-.54-.82-.985-.984C14.39 8.14 12.75 8.21 12 8.21c-.773 0-2.414-.07-3.094.21-.469.188-.82.54-1.008.985-.28.703-.21 2.344-.21 3.094 0 .773-.07 2.414.21 3.094.188.469.54.82 1.008 1.008.68.28 2.32.21 3.094.21.75 0 2.39.07 3.094-.21.445-.188.82-.54.984-1.008Z"/></svg>